<?xml version="1.0" standalone="no"?>
<!DOCTYPE svg PUBLIC "-//W3C//DTD SVG 20010904//EN"
 "http://www.w3.org/TR/2001/REC-SVG-20010904/DTD/svg10.dtd">
<svg version="1.0" xmlns="http://www.w3.org/2000/svg"
 width="980.000000pt" height="980.000000pt" viewBox="0 0 980.000000 980.000000"
 preserveAspectRatio="xMidYMid meet">

<g transform="translate(0.000000,980.000000) scale(0.100000,-0.100000)"
fill="#000000" stroke="none">
<path fill='#c70101' d="M4623 9789 c-1551 -84 -2966 -903 -3826 -2215 -434 -661 -686 -1373
-773 -2184 -22 -203 -26 -737 -6 -930 88 -869 343 -1585 817 -2295 386 -577
936 -1101 1546 -1471 1142 -692 2578 -876 3895 -498 650 186 1230 498 1779
956 137 114 406 378 534 524 960 1095 1383 2578 1145 4014 -203 1229 -851
2315 -1839 3085 -133 104 -410 289 -559 375 -826 473 -1754 691 -2713 639z
m797 -533 c508 -64 935 -191 1395 -416 958 -468 1699 -1252 2125 -2250 162
-380 265 -772 316 -1215 22 -189 26 -716 6 -905 -81 -773 -338 -1461 -786
-2100 -196 -280 -534 -645 -792 -854 -589 -478 -1276 -799 -1994 -930 -286
-52 -398 -61 -795 -61 -401 1 -536 12 -838 71 -702 136 -1372 455 -1957 933
-137 111 -396 366 -522 511 -518 598 -876 1354 -1002 2110 -45 272 -59 443
-59 740 0 527 70 962 230 1425 481 1382 1602 2429 3027 2825 202 56 560 116
796 133 133 10 729 -2 850 -17z"/>
<path fill='#c70101' d="M4795 6936 c-40 -19 -302 -276 -1372 -1347 -938 -939 -1327 -1335
-1338 -1361 -8 -21 -15 -66 -15 -102 0 -114 77 -218 183 -247 52 -14 134 -6
178 17 19 9 580 560 1247 1223 667 663 1217 1206 1222 1206 5 0 554 -542 1221
-1205 666 -663 1227 -1213 1246 -1223 117 -62 284 -5 342 116 28 58 29 161 1
220 -14 30 -383 405 -1352 1373 -1164 1162 -1338 1332 -1374 1342 -66 19 -133
15 -189 -12z"/>
</g>
</svg>
